<?xml version="1.0" encoding="UTF-8" standalone="no"?>
<svg
   xmlns:dc="http://purl.org/dc/elements/1.1/"
   xmlns:cc="http://creativecommons.org/ns#"
   xmlns:rdf="http://www.w3.org/1999/02/22-rdf-syntax-ns#"
   xmlns:svg="http://www.w3.org/2000/svg"
   xmlns="http://www.w3.org/2000/svg"
   viewBox="0 0 156.43066 231.64267"
   height="131.64267"
   width="56.43066"
   xml:space="preserve"
   id="svg2"
   version="1.1"><metadata
     id="metadata8"><rdf:RDF><cc:Work
         rdf:about=""><dc:format>image/svg+xml</dc:format><dc:type
           rdf:resource="http://purl.org/dc/dcmitype/StillImage" /></cc:Work></rdf:RDF></metadata><defs
     id="defs6"><clipPath
       id="clipPath18"
       clipPathUnits="userSpaceOnUse"><path
         id="path16"
         d="M 0,173.732 H 117.323 V 0 H 0 Z" /></clipPath></defs><g
     transform="matrix(1.3333333,0,0,-1.3333333,0,231.64267)"
     id="g10"><g
       id="g12"><g
         clip-path="url(#clipPath18)"
         id="g14"><g
           transform="translate(104.0091,120.9012)"
           id="g20"><path
             id="path22"
             style="fill:none;stroke:#414042;stroke-width:1;stroke-linecap:butt;stroke-linejoin:miter;stroke-miterlimit:4;stroke-dasharray:none;stroke-opacity:1"
             d="m 0,0 c 0,-25.283 -20.494,-45.779 -45.777,-45.779 -25.284,0 -45.781,20.496 -45.781,45.779 0,25.283 20.497,45.78 45.781,45.78 C -20.494,45.78 0,25.283 0,0" /></g><g
           transform="translate(35.4476,124.3348)"
           id="g24"><path
             id="path26"
             style="fill:none;stroke:#414042;stroke-width:0.70899999;stroke-linecap:round;stroke-linejoin:miter;stroke-miterlimit:10;stroke-dasharray:none;stroke-opacity:1"
             d="M 0,0 V 30.518" /></g><g
           transform="translate(39.3597,123.0389)"
           id="g28"><path
             id="path30"
             style="fill:none;stroke:#414042;stroke-width:0.70899999;stroke-linecap:round;stroke-linejoin:miter;stroke-miterlimit:10;stroke-dasharray:none;stroke-opacity:1"
             d="M 0,0 16.417,16.258" /></g><g
           transform="translate(35.4476,121.8836)"
           id="g32"><path
             id="path34"
             style="fill:#414042;fill-opacity:1;fill-rule:nonzero;stroke:none"
             d="m 0,0 c 1.591,0 2.882,-1.29 2.882,-2.881 0,-1.591 -1.291,-2.882 -2.882,-2.882 -1.591,0 -2.88,1.291 -2.88,2.882 C -2.88,-1.29 -1.591,0 0,0" /></g><g
           transform="translate(58.3089,140.3406)"
           id="g36"><path
             id="path38"
             style="fill:#414042;fill-opacity:1;fill-rule:nonzero;stroke:none"
             d="m 0,0 c -0.84,0 -1.523,0.682 -1.523,1.522 0,0.839 0.683,1.522 1.523,1.522 0.838,0 1.521,-0.683 1.521,-1.522 C 1.521,0.682 0.838,0 0,0" /></g><g
           transform="translate(44.6741,128.2342)"
           id="g40"><path
             id="path42"
             style="fill:none;stroke:#414042;stroke-width:0.70899999;stroke-linecap:round;stroke-linejoin:miter;stroke-miterlimit:10;stroke-dasharray:none;stroke-opacity:1"
             d="M 0,0 H 16.809" /></g><g
           transform="translate(67.181,122.4354)"
           id="g44"><path
             id="path46"
             style="fill:none;stroke:#414042;stroke-width:0.70899999;stroke-linecap:round;stroke-linejoin:miter;stroke-miterlimit:10;stroke-dasharray:none;stroke-opacity:1"
             d="M 0,0 V -11.915" /></g><g
           transform="translate(67.181,103.4539)"
           id="g48"><path
             id="path50"
             style="fill:none;stroke:#414042;stroke-width:0.70899999;stroke-linecap:round;stroke-linejoin:miter;stroke-miterlimit:10;stroke-dasharray:none;stroke-opacity:1"
             d="M 0,0 V -20.475" /></g><g
           transform="translate(87.7962,103.4539)"
           id="g52"><path
             id="path54"
             style="fill:none;stroke:#414042;stroke-width:0.70899999;stroke-linecap:round;stroke-linejoin:miter;stroke-miterlimit:10;stroke-dasharray:none;stroke-opacity:1"
             d="M 0,0 -16.666,-21.917" /></g><g
           transform="translate(70.8226,106.9471)"
           id="g56"><path
             id="path58"
             style="fill:none;stroke:#414042;stroke-width:0.70899999;stroke-linecap:round;stroke-linejoin:miter;stroke-miterlimit:10;stroke-dasharray:none;stroke-opacity:1"
             d="M 0,0 16.191,0.057" /></g><g
           transform="translate(67.181,108.3875)"
           id="g60"><path
             id="path62"
             style="fill:#414042;fill-opacity:1;fill-rule:nonzero;stroke:none"
             d="m 0,0 c 0.798,0 1.442,-0.645 1.442,-1.44 0,-0.795 -0.644,-1.442 -1.442,-1.442 -0.795,0 -1.441,0.647 -1.441,1.442 C -1.441,-0.645 -0.795,0 0,0" /></g><g
           transform="translate(90.4984,108.2684)"
           id="g64"><path
             id="path66"
             style="fill:#414042;fill-opacity:1;fill-rule:nonzero;stroke:none"
             d="m 0,0 c 0.795,0 1.44,-0.644 1.44,-1.44 0,-0.795 -0.645,-1.442 -1.44,-1.442 -0.797,0 -1.442,0.647 -1.442,1.442 C -1.442,-0.644 -0.797,0 0,0" /></g><g
           transform="translate(67.181,131.2527)"
           id="g68"><path
             id="path70"
             style="fill:#414042;fill-opacity:1;fill-rule:nonzero;stroke:none"
             d="m 0,0 c 1.591,0 2.883,-1.29 2.883,-2.88 0,-1.592 -1.292,-2.884 -2.883,-2.884 -1.588,0 -2.881,1.292 -2.881,2.884 C -2.881,-1.29 -1.588,0 0,0" /></g><g
           transform="translate(67.1806,80.4874)"
           id="g72"><path
             id="path74"
             style="fill:#414042;fill-opacity:1;fill-rule:nonzero;stroke:none"
             d="m 0,0 c 2.406,0 4.361,-1.953 4.361,-4.36 0,-2.406 -1.955,-4.357 -4.361,-4.357 -2.402,0 -4.358,1.951 -4.358,4.357 C -4.358,-1.953 -2.402,0 0,0" /></g><g
           transform="translate(35.4477,157.0309)"
           id="g76"><path
             id="path78"
             style="fill:#414042;fill-opacity:1;fill-rule:nonzero;stroke:none"
             d="m 0,0 c -1.895,0 -3.441,1.541 -3.441,3.438 0,1.895 1.546,3.436 3.441,3.436 1.897,0 3.44,-1.541 3.44,-3.436 C 3.44,1.541 1.897,0 0,0" /></g><g
           transform="translate(54.4209,23.8761)"
           id="g80"><path
             id="path82"
             style="fill:#414042;fill-opacity:1;fill-rule:nonzero;stroke:none"
             d="m 0,0 c 0.021,0.911 -0.428,1.152 -0.769,1.152 -0.69,0 -1.162,-0.329 -1.162,-1.842 0,-1.798 0.231,-2.444 1.162,-2.444 0.208,0 0.833,0.217 0.8,1.218 h 0.942 c 0.035,-1.558 -1.128,-1.954 -1.742,-1.954 -1.172,0 -2.105,0.352 -2.105,2.795 0,1.624 0.187,2.963 2.105,2.963 1.108,0 1.756,-0.649 1.7,-1.888 z" /></g><g
           transform="translate(60.1221,23.1857)"
           id="g84"><path
             id="path86"
             style="fill:#414042;fill-opacity:1;fill-rule:nonzero;stroke:none"
             d="m 0,0 c 0,1.514 -0.469,1.842 -1.161,1.842 -0.691,0 -1.161,-0.328 -1.161,-1.842 0,-1.798 0.231,-2.443 1.161,-2.443 C -0.23,-2.443 0,-1.798 0,0 m -3.265,-0.384 c 0,1.623 0.185,2.963 2.104,2.963 1.919,0 2.104,-1.34 2.104,-2.963 0,-2.444 -0.931,-2.795 -2.104,-2.795 -1.172,0 -2.104,0.351 -2.104,2.795" /></g><g
           transform="translate(65.4982,20.1176)"
           id="g88"><path
             id="path90"
             style="fill:#414042;fill-opacity:1;fill-rule:nonzero;stroke:none"
             d="m 0,0 v 3.837 c 0,0.592 -0.208,1.074 -0.974,1.074 -0.988,0 -1.131,-0.878 -1.131,-1.634 V 0 h -0.898 v 4.383 c 0,0.385 -0.023,0.768 -0.056,1.151 h 0.954 v -0.71 h 0.042 c 0.354,0.623 0.769,0.823 1.481,0.823 1.184,0 1.481,-0.716 1.481,-1.81 L 0.899,0 Z" /></g><g
           transform="translate(69.6121,20.0064)"
           id="g92"><path
             id="path94"
             style="fill:#414042;fill-opacity:1;fill-rule:nonzero;stroke:none"
             d="m 0,0 c -1.194,0 -1.94,0.527 -1.908,1.8 h 1.021 c 0,-0.32 0.009,-1.064 0.921,-1.064 0.537,0 0.952,0.273 0.952,0.844 0,0.986 -2.763,1.007 -2.763,2.663 0,0.581 0.352,1.515 1.908,1.515 0.987,0 1.831,-0.474 1.754,-1.569 H 0.889 C 0.899,4.77 0.591,5.076 0.023,5.076 -0.461,5.076 -0.833,4.814 -0.833,4.33 -0.833,3.356 1.929,3.378 1.929,1.689 1.929,0.471 1.098,0 0,0" /></g><g
           transform="translate(75.8078,25.6519)"
           id="g96"><path
             id="path98"
             style="fill:#414042;fill-opacity:1;fill-rule:nonzero;stroke:none"
             d="m 0,0 h 0.899 v -4.383 c 0,-0.385 0.022,-0.768 0.056,-1.151 H 0 v 0.666 h -0.033 c -0.296,-0.502 -0.822,-0.778 -1.403,-0.778 -0.962,0 -1.49,0.484 -1.49,1.426 V 0 h 0.899 v -3.836 c 0,-0.668 0.307,-1.118 0.944,-1.118 0.481,0 1.083,0.361 1.083,1.283 z" /></g><path
           id="path100"
           style="fill:#414042;fill-opacity:1;fill-rule:nonzero;stroke:none"
           d="m 79.21,20.118 h -0.898 v 7.915 h 0.898 z" /><g
           transform="translate(80.8658,25.6519)"
           id="g102"><path
             id="path104"
             style="fill:#414042;fill-opacity:1;fill-rule:nonzero;stroke:none"
             d="M 0,0 V 1.065 L 0.901,1.47 V 0 H 2.106 V -0.678 H 0.901 v -3.388 c 0,-0.351 0,-0.802 0.822,-0.802 0.065,0 0.206,0.024 0.405,0.046 V -5.514 C 1.832,-5.534 1.534,-5.6 1.242,-5.6 0.386,-5.6 0,-5.25 0,-4.614 v 3.936 H -0.91 V 0 Z" /></g><g
           transform="translate(86.9309,23.1857)"
           id="g106"><path
             id="path108"
             style="fill:#414042;fill-opacity:1;fill-rule:nonzero;stroke:none"
             d="m 0,0 c 0,1.514 -0.471,1.842 -1.162,1.842 -0.69,0 -1.16,-0.328 -1.16,-1.842 0,-1.798 0.229,-2.443 1.16,-2.443 C -0.228,-2.443 0,-1.798 0,0 m -3.265,-0.384 c 0,1.623 0.185,2.963 2.103,2.963 1.919,0 2.106,-1.34 2.106,-2.963 0,-2.444 -0.932,-2.795 -2.106,-2.795 -1.172,0 -2.103,0.351 -2.103,2.795" /></g><g
           transform="translate(90.2337,24.8202)"
           id="g110"><path
             id="path112"
             style="fill:#414042;fill-opacity:1;fill-rule:nonzero;stroke:none"
             d="m 0,0 h 0.022 c 0.372,0.844 0.833,0.944 1.71,0.944 V 0.01 C 1.655,0.022 1.568,0.033 1.492,0.044 1.414,0.053 1.338,0.065 1.251,0.065 0.253,0.065 0,-0.69 0,-1.436 v -3.267 h -0.899 v 5.535 l 0.899,0 z" /></g><path
           id="path114"
           style="fill:#414042;fill-opacity:1;fill-rule:nonzero;stroke:none"
           d="m 93.833,20.118 h -0.898 v 5.534 h 0.898 z m -0.956,7.914 h 1.008 v -0.965 h -1.008 z" /><g
           transform="translate(96.2105,21.7616)"
           id="g116"><path
             id="path118"
             style="fill:#414042;fill-opacity:1;fill-rule:nonzero;stroke:none"
             d="m 0,0 c 0,-0.537 0.265,-1.019 0.868,-1.019 0.548,0 1.226,0.337 1.139,2.124 C 1.152,1.095 0,1.173 0,0 M 2.03,-0.844 H 2.007 C 1.734,-1.48 1.306,-1.755 0.614,-1.755 c -1.171,0 -1.512,0.756 -1.512,1.82 0,1.677 1.646,1.753 2.905,1.722 C 2.03,2.521 2.042,3.321 1.075,3.321 0.472,3.321 0.155,2.915 0.21,2.334 h -0.976 c 0.044,1.24 0.702,1.669 1.875,1.669 1.425,0 1.797,-0.736 1.797,-1.669 V -0.33 c 0,-0.439 0.044,-0.888 0.109,-1.314 H 2.03 Z" /></g><g
           transform="translate(23.5006,10.1126)"
           id="g120"><path
             id="path122"
             style="fill:#414042;fill-opacity:1;fill-rule:nonzero;stroke:none"
             d="M 0,0 C 0,1.613 -0.449,1.808 -1.109,1.808 -1.677,1.808 -2.149,1.534 -2.16,0 Z m -2.16,-0.681 c 0,-1.546 0.416,-1.852 1.117,-1.852 0.614,0 0.933,0.494 0.967,1.053 h 0.984 c -0.01,-1.228 -0.767,-1.788 -1.927,-1.788 -1.174,0 -2.106,0.351 -2.106,2.795 0,1.624 0.186,2.961 2.106,2.961 1.576,0 1.973,-0.866 1.973,-2.698 v -0.471 z" /></g><g
           transform="translate(47.9605,12.4918)"
           id="g124"><path
             id="path126"
             style="fill:#414042;fill-opacity:1;fill-rule:nonzero;stroke:none"
             d="M 0,0 V 1.063 L 0.899,1.469 V 0 H 2.105 V -0.681 H 0.899 v -3.388 c 0,-0.35 0,-0.799 0.822,-0.799 0.066,0 0.208,0.021 0.405,0.043 v -0.69 C 1.83,-5.538 1.535,-5.603 1.239,-5.603 0.383,-5.603 0,-5.253 0,-4.616 v 3.935 H -0.91 V 0 Z" /></g><g
           transform="translate(51.8435,11.6576)"
           id="g128"><path
             id="path130"
             style="fill:#414042;fill-opacity:1;fill-rule:nonzero;stroke:none"
             d="m 0,0 h 0.022 c 0.372,0.845 0.833,0.943 1.71,0.943 V 0.011 C 1.656,0.022 1.567,0.033 1.492,0.044 1.414,0.054 1.337,0.068 1.25,0.068 0.253,0.068 0,-0.689 0,-1.436 v -3.268 h -0.899 v 5.538 l 0.899,0 z" /></g><g
           transform="translate(57.6004,10.1126)"
           id="g132"><path
             id="path134"
             style="fill:#414042;fill-opacity:1;fill-rule:nonzero;stroke:none"
             d="M 0,0 C 0,1.613 -0.447,1.808 -1.107,1.808 -1.676,1.808 -2.148,1.534 -2.159,0 Z m -2.159,-0.681 c 0,-1.546 0.417,-1.852 1.119,-1.852 0.613,0 0.931,0.494 0.965,1.053 H 0.91 c -0.011,-1.228 -0.766,-1.788 -1.928,-1.788 -1.173,0 -2.106,0.351 -2.106,2.795 0,1.624 0.186,2.961 2.106,2.961 1.578,0 1.973,-0.866 1.973,-2.698 v -0.471 z" /></g><path
           id="path136"
           style="fill:#414042;fill-opacity:1;fill-rule:nonzero;stroke:none"
           d="m 60.927,6.954 h -0.901 v 5.538 h 0.901 z m -0.955,7.914 h 1.007 v -0.962 h -1.007 z" /><g
           transform="translate(65.4873,6.9537)"
           id="g138"><path
             id="path140"
             style="fill:#414042;fill-opacity:1;fill-rule:nonzero;stroke:none"
             d="m 0,0 v 3.837 c 0,0.594 -0.21,1.075 -0.977,1.075 -0.986,0 -1.128,-0.878 -1.128,-1.633 V 0 h -0.9 v 4.386 c 0,0.386 -0.021,0.768 -0.054,1.152 h 0.954 V 4.824 h 0.043 c 0.35,0.626 0.767,0.823 1.479,0.823 1.185,0 1.481,-0.713 1.481,-1.81 L 0.898,0 Z" /></g><g
           transform="translate(68.7888,8.599)"
           id="g142"><path
             id="path144"
             style="fill:#414042;fill-opacity:1;fill-rule:nonzero;stroke:none"
             d="m 0,0 c 0,-0.538 0.264,-1.019 0.868,-1.019 0.546,0 1.226,0.34 1.14,2.126 C 1.151,1.097 0,1.173 0,0 m 2.028,-0.844 h -0.02 c -0.276,-0.637 -0.701,-0.91 -1.393,-0.91 -1.174,0 -1.513,0.755 -1.513,1.819 0,1.678 1.646,1.755 2.906,1.722 0.02,0.735 0.033,1.535 -0.933,1.535 -0.604,0 -0.921,-0.406 -0.866,-0.986 h -0.974 c 0.041,1.236 0.701,1.666 1.874,1.666 1.425,0 1.796,-0.735 1.796,-1.666 V -0.33 c 0,-0.438 0.045,-0.887 0.111,-1.315 H 2.028 Z" /></g><g
           transform="translate(76.1705,6.9537)"
           id="g146"><path
             id="path148"
             style="fill:#414042;fill-opacity:1;fill-rule:nonzero;stroke:none"
             d="M 0,0 V 3.837 C 0,4.398 -0.154,4.912 -0.877,4.912 -1.15,4.912 -1.523,4.747 -1.655,4.539 -1.818,4.265 -1.864,3.936 -1.864,3.728 V 0 h -0.897 v 4.386 c 0,0.386 -0.022,0.768 -0.057,1.152 h 0.954 V 4.847 h 0.023 c 0.263,0.591 0.735,0.8 1.382,0.8 0.504,0 1.084,-0.209 1.292,-0.713 0.307,0.591 0.811,0.713 1.315,0.713 0.583,0 1.515,-0.132 1.515,-1.438 V 0 H 2.762 V 3.837 C 2.762,4.398 2.61,4.912 1.886,4.912 1.547,4.912 1.447,4.901 1.206,4.704 0.943,4.485 0.898,3.936 0.898,3.728 V 0 Z" /></g><g
           transform="translate(84.4091,10.1126)"
           id="g150"><path
             id="path152"
             style="fill:#414042;fill-opacity:1;fill-rule:nonzero;stroke:none"
             d="M 0,0 C 0,1.613 -0.451,1.808 -1.109,1.808 -1.677,1.808 -2.149,1.534 -2.162,0 Z m -2.162,-0.681 c 0,-1.546 0.419,-1.852 1.121,-1.852 0.614,0 0.931,0.494 0.963,1.053 H 0.91 c -0.012,-1.228 -0.767,-1.788 -1.93,-1.788 -1.173,0 -2.105,0.351 -2.105,2.795 0,1.624 0.185,2.961 2.105,2.961 1.579,0 1.974,-0.866 1.974,-2.698 v -0.471 z" /></g><g
           transform="translate(89.8613,6.9537)"
           id="g154"><path
             id="path156"
             style="fill:#414042;fill-opacity:1;fill-rule:nonzero;stroke:none"
             d="m 0,0 v 3.837 c 0,0.594 -0.209,1.075 -0.977,1.075 -0.985,0 -1.129,-0.878 -1.129,-1.633 V 0 h -0.898 v 4.386 c 0,0.386 -0.023,0.768 -0.057,1.152 h 0.955 V 4.824 h 0.045 c 0.349,0.626 0.766,0.823 1.48,0.823 1.182,0 1.478,-0.713 1.478,-1.81 V 0 Z" /></g><g
           transform="translate(92.4388,12.4918)"
           id="g158"><path
             id="path160"
             style="fill:#414042;fill-opacity:1;fill-rule:nonzero;stroke:none"
             d="M 0,0 V 1.063 L 0.898,1.469 V 0 H 2.106 V -0.681 H 0.898 v -3.388 c 0,-0.35 0,-0.799 0.822,-0.799 0.068,0 0.209,0.021 0.409,0.043 v -0.69 C 1.831,-5.538 1.535,-5.603 1.239,-5.603 0.384,-5.603 0,-5.253 0,-4.616 v 3.935 H -0.908 V 0 Z" /></g><g
           transform="translate(98.5038,10.0231)"
           id="g162"><path
             id="path164"
             style="fill:#414042;fill-opacity:1;fill-rule:nonzero;stroke:none"
             d="m 0,0 c 0,1.512 -0.472,1.842 -1.162,1.842 -0.69,0 -1.163,-0.33 -1.163,-1.842 0,-1.796 0.231,-2.443 1.163,-2.443 C -0.23,-2.443 0,-1.796 0,0 m -3.268,-0.383 c 0,1.623 0.186,2.96 2.106,2.96 1.918,0 2.105,-1.337 2.105,-2.96 0,-2.445 -0.932,-2.795 -2.105,-2.795 -1.174,0 -2.106,0.35 -2.106,2.795" /></g><g
           transform="translate(20.5243,52.804)"
           id="g166"><path
             id="path168"
             style="fill:#414042;fill-opacity:1;fill-rule:nonzero;stroke:none"
             d="m 0,0 h 2.216 v -14.171 h 7.521 v -1.992 H 0 Z" /></g><g
           transform="translate(55.0109,42.6625)"
           id="g170"><path
             id="path172"
             style="fill:#414042;fill-opacity:1;fill-rule:nonzero;stroke:none"
             d="M 0,0 H 6.11 L 3.133,7.924 Z m 2.036,10.142 h 2.396 l 6.536,-16.164 h -2.44 l -1.746,4.209 h -7.498 l -1.747,-4.209 h -2.305 z" /></g><g
           transform="translate(90.7729,38.4543)"
           id="g174"><path
             id="path176"
             style="fill:#414042;fill-opacity:1;fill-rule:nonzero;stroke:none"
             d="m 0,0 h 3.827 c 1.769,0 3.179,0.939 3.179,2.799 0,1.611 -1.119,2.798 -3.088,2.798 L 0,5.597 Z m 0,7.522 h 3.133 c 0.761,0 3.358,0 3.358,2.552 0,2.439 -2.036,2.439 -3.269,2.439 H 0 Z m -2.172,6.828 h 5.776 c 1.97,0 3.067,-0.203 4.074,-1.186 C 8.373,12.492 8.819,11.552 8.819,10.275 8.819,7.612 6.873,6.916 6.088,6.625 7.03,6.358 9.312,5.687 9.312,2.598 9.312,0.403 7.901,-0.717 7.363,-1.075 6.245,-1.813 4.992,-1.813 3.715,-1.813 h -5.887 z" /></g><g
           transform="translate(43.3062,44.7346)"
           id="g178"><path
             id="path180"
             style="fill:none;stroke:#414042;stroke-width:1.23800004;stroke-linecap:butt;stroke-linejoin:miter;stroke-miterlimit:4;stroke-dasharray:none;stroke-opacity:1"
             d="m 0,0 c 0,-1.231 -0.996,-2.228 -2.228,-2.228 -1.23,0 -2.228,0.997 -2.228,2.228 0,1.229 0.998,2.227 2.228,2.227 C -0.996,2.227 0,1.229 0,0 Z" /></g><g
           transform="translate(78.3344,44.7346)"
           id="g182"><path
             id="path184"
             style="fill:none;stroke:#414042;stroke-width:1.23800004;stroke-linecap:butt;stroke-linejoin:miter;stroke-miterlimit:4;stroke-dasharray:none;stroke-opacity:1"
             d="m 0,0 c 0,-1.231 -0.996,-2.228 -2.228,-2.228 -1.231,0 -2.229,0.997 -2.229,2.228 0,1.229 0.998,2.227 2.229,2.227 C -0.996,2.227 0,1.229 0,0 Z" /></g></g></g></g></svg>